<mxfile host="app.diagrams.net" modified="2024-05-19T22:50:37.388Z" agent="Mozilla/5.0 (Windows NT 10.0; Win64; x64) AppleWebKit/537.36 (KHTML, like Gecko) Chrome/125.0.0.0 Safari/537.36" etag="RpDPghd6FpvL54Fl4BeI" version="24.4.4" type="github">
  <diagram name="Página-1" id="aSQS77xEJpxw0eKK1luw">
    <mxGraphModel dx="880" dy="468" grid="1" gridSize="10" guides="1" tooltips="1" connect="1" arrows="1" fold="1" page="1" pageScale="1" pageWidth="827" pageHeight="1169" math="0" shadow="0">
      <root>
        <mxCell id="0" />
        <mxCell id="1" parent="0" />
        <mxCell id="Sp3fm54vRSG5ZmfMtKE7-2" style="edgeStyle=orthogonalEdgeStyle;rounded=0;orthogonalLoop=1;jettySize=auto;html=1;" edge="1" parent="1" source="Sp3fm54vRSG5ZmfMtKE7-1">
          <mxGeometry relative="1" as="geometry">
            <mxPoint x="414" y="100" as="targetPoint" />
          </mxGeometry>
        </mxCell>
        <mxCell id="Sp3fm54vRSG5ZmfMtKE7-3" style="edgeStyle=orthogonalEdgeStyle;rounded=0;orthogonalLoop=1;jettySize=auto;html=1;" edge="1" parent="1" source="Sp3fm54vRSG5ZmfMtKE7-1">
          <mxGeometry relative="1" as="geometry">
            <mxPoint x="560" y="30" as="targetPoint" />
          </mxGeometry>
        </mxCell>
        <mxCell id="Sp3fm54vRSG5ZmfMtKE7-1" value="&lt;b&gt;INICIO&lt;/b&gt;" style="rounded=1;whiteSpace=wrap;html=1;" vertex="1" parent="1">
          <mxGeometry x="354" width="120" height="60" as="geometry" />
        </mxCell>
        <mxCell id="Sp3fm54vRSG5ZmfMtKE7-4" value="inteiro &lt;b&gt;candidato = 0&lt;/b&gt;&lt;div&gt;inteiro &lt;b&gt;resto = 0&lt;/b&gt;&lt;/div&gt;&lt;div&gt;inteiro &lt;b&gt;verificador = 0&lt;/b&gt;&lt;/div&gt;" style="rounded=0;whiteSpace=wrap;html=1;" vertex="1" parent="1">
          <mxGeometry x="560" width="120" height="60" as="geometry" />
        </mxCell>
        <mxCell id="Sp3fm54vRSG5ZmfMtKE7-7" style="edgeStyle=orthogonalEdgeStyle;rounded=0;orthogonalLoop=1;jettySize=auto;html=1;" edge="1" parent="1" source="Sp3fm54vRSG5ZmfMtKE7-5">
          <mxGeometry relative="1" as="geometry">
            <mxPoint x="414" y="270" as="targetPoint" />
          </mxGeometry>
        </mxCell>
        <mxCell id="Sp3fm54vRSG5ZmfMtKE7-5" value="Insira um número para verificarmos se ele é primo ou não:" style="rounded=0;whiteSpace=wrap;html=1;" vertex="1" parent="1">
          <mxGeometry x="354" y="180" width="120" height="60" as="geometry" />
        </mxCell>
        <mxCell id="Sp3fm54vRSG5ZmfMtKE7-6" value="&lt;font style=&quot;font-size: 20px;&quot;&gt;&lt;b style=&quot;background-color: rgb(0, 127, 255);&quot;&gt;NÚMERO PRIMO&lt;/b&gt;&lt;/font&gt;" style="text;html=1;align=center;verticalAlign=middle;resizable=0;points=[];autosize=1;strokeColor=none;fillColor=none;" vertex="1" parent="1">
          <mxGeometry x="80" y="10" width="180" height="40" as="geometry" />
        </mxCell>
        <mxCell id="Sp3fm54vRSG5ZmfMtKE7-12" style="edgeStyle=orthogonalEdgeStyle;rounded=0;orthogonalLoop=1;jettySize=auto;html=1;entryX=0.5;entryY=0;entryDx=0;entryDy=0;" edge="1" parent="1" source="Sp3fm54vRSG5ZmfMtKE7-8" target="Sp3fm54vRSG5ZmfMtKE7-11">
          <mxGeometry relative="1" as="geometry" />
        </mxCell>
        <mxCell id="Sp3fm54vRSG5ZmfMtKE7-8" value="&lt;b&gt;candidato &lt;/b&gt;&amp;lt;- entrada" style="rounded=0;whiteSpace=wrap;html=1;" vertex="1" parent="1">
          <mxGeometry x="354" y="270" width="120" height="60" as="geometry" />
        </mxCell>
        <mxCell id="Sp3fm54vRSG5ZmfMtKE7-10" style="edgeStyle=orthogonalEdgeStyle;rounded=0;orthogonalLoop=1;jettySize=auto;html=1;entryX=0.5;entryY=0;entryDx=0;entryDy=0;" edge="1" parent="1" source="Sp3fm54vRSG5ZmfMtKE7-9" target="Sp3fm54vRSG5ZmfMtKE7-5">
          <mxGeometry relative="1" as="geometry" />
        </mxCell>
        <mxCell id="Sp3fm54vRSG5ZmfMtKE7-9" value="Número primo é aquele número que é divisível apenas por 1 e por ele mesmo!" style="rounded=0;whiteSpace=wrap;html=1;" vertex="1" parent="1">
          <mxGeometry x="354" y="100" width="120" height="60" as="geometry" />
        </mxCell>
        <mxCell id="Sp3fm54vRSG5ZmfMtKE7-13" style="edgeStyle=orthogonalEdgeStyle;rounded=0;orthogonalLoop=1;jettySize=auto;html=1;" edge="1" parent="1" source="Sp3fm54vRSG5ZmfMtKE7-11">
          <mxGeometry relative="1" as="geometry">
            <mxPoint x="414" y="540" as="targetPoint" />
          </mxGeometry>
        </mxCell>
        <mxCell id="Sp3fm54vRSG5ZmfMtKE7-11" value="para(inteiro contador = 1; contador&amp;lt;=candidato; contador++){&lt;div&gt;resto=candidato%contador&lt;/div&gt;&lt;div&gt;se(resto==0){&lt;/div&gt;&lt;div&gt;verificador++}&lt;/div&gt;&lt;div&gt;}&lt;/div&gt;" style="rounded=0;whiteSpace=wrap;html=1;align=left;" vertex="1" parent="1">
          <mxGeometry x="311" y="380" width="206" height="120" as="geometry" />
        </mxCell>
        <mxCell id="Sp3fm54vRSG5ZmfMtKE7-15" style="edgeStyle=orthogonalEdgeStyle;rounded=0;orthogonalLoop=1;jettySize=auto;html=1;" edge="1" parent="1" source="Sp3fm54vRSG5ZmfMtKE7-14">
          <mxGeometry relative="1" as="geometry">
            <mxPoint x="290" y="570" as="targetPoint" />
          </mxGeometry>
        </mxCell>
        <mxCell id="Sp3fm54vRSG5ZmfMtKE7-17" style="edgeStyle=orthogonalEdgeStyle;rounded=0;orthogonalLoop=1;jettySize=auto;html=1;" edge="1" parent="1" source="Sp3fm54vRSG5ZmfMtKE7-14" target="Sp3fm54vRSG5ZmfMtKE7-18">
          <mxGeometry relative="1" as="geometry">
            <mxPoint x="550" y="570" as="targetPoint" />
          </mxGeometry>
        </mxCell>
        <mxCell id="Sp3fm54vRSG5ZmfMtKE7-28" style="edgeStyle=orthogonalEdgeStyle;rounded=0;orthogonalLoop=1;jettySize=auto;html=1;" edge="1" parent="1" source="Sp3fm54vRSG5ZmfMtKE7-14">
          <mxGeometry relative="1" as="geometry">
            <mxPoint x="414" y="630" as="targetPoint" />
          </mxGeometry>
        </mxCell>
        <mxCell id="Sp3fm54vRSG5ZmfMtKE7-14" value="&lt;b&gt;verificador&lt;/b&gt;" style="rounded=0;whiteSpace=wrap;html=1;" vertex="1" parent="1">
          <mxGeometry x="354" y="540" width="120" height="60" as="geometry" />
        </mxCell>
        <mxCell id="Sp3fm54vRSG5ZmfMtKE7-35" style="edgeStyle=orthogonalEdgeStyle;rounded=0;orthogonalLoop=1;jettySize=auto;html=1;" edge="1" parent="1" source="Sp3fm54vRSG5ZmfMtKE7-16">
          <mxGeometry relative="1" as="geometry">
            <mxPoint x="250" y="720" as="targetPoint" />
          </mxGeometry>
        </mxCell>
        <mxCell id="Sp3fm54vRSG5ZmfMtKE7-16" value="verificador&amp;gt;2" style="whiteSpace=wrap;html=1;aspect=fixed;" vertex="1" parent="1">
          <mxGeometry x="210" y="530" width="80" height="80" as="geometry" />
        </mxCell>
        <mxCell id="Sp3fm54vRSG5ZmfMtKE7-36" style="edgeStyle=orthogonalEdgeStyle;rounded=0;orthogonalLoop=1;jettySize=auto;html=1;" edge="1" parent="1" source="Sp3fm54vRSG5ZmfMtKE7-18">
          <mxGeometry relative="1" as="geometry">
            <mxPoint x="590" y="720" as="targetPoint" />
          </mxGeometry>
        </mxCell>
        <mxCell id="Sp3fm54vRSG5ZmfMtKE7-18" value="verificador==2" style="whiteSpace=wrap;html=1;aspect=fixed;" vertex="1" parent="1">
          <mxGeometry x="550" y="530" width="80" height="80" as="geometry" />
        </mxCell>
        <mxCell id="Sp3fm54vRSG5ZmfMtKE7-24" style="edgeStyle=orthogonalEdgeStyle;rounded=0;orthogonalLoop=1;jettySize=auto;html=1;" edge="1" parent="1" source="Sp3fm54vRSG5ZmfMtKE7-21" target="Sp3fm54vRSG5ZmfMtKE7-25">
          <mxGeometry relative="1" as="geometry">
            <mxPoint x="474" y="770" as="targetPoint" />
          </mxGeometry>
        </mxCell>
        <mxCell id="Sp3fm54vRSG5ZmfMtKE7-21" value="&lt;b&gt;É PRIMO&lt;/b&gt;" style="ellipse;whiteSpace=wrap;html=1;aspect=fixed;" vertex="1" parent="1">
          <mxGeometry x="544" y="730" width="80" height="80" as="geometry" />
        </mxCell>
        <mxCell id="Sp3fm54vRSG5ZmfMtKE7-23" style="edgeStyle=orthogonalEdgeStyle;rounded=0;orthogonalLoop=1;jettySize=auto;html=1;" edge="1" parent="1" source="Sp3fm54vRSG5ZmfMtKE7-22">
          <mxGeometry relative="1" as="geometry">
            <mxPoint x="354" y="770" as="targetPoint" />
          </mxGeometry>
        </mxCell>
        <mxCell id="Sp3fm54vRSG5ZmfMtKE7-22" value="&lt;b&gt;NÃO É PRIMO&lt;/b&gt;" style="ellipse;whiteSpace=wrap;html=1;aspect=fixed;" vertex="1" parent="1">
          <mxGeometry x="204" y="730" width="80" height="80" as="geometry" />
        </mxCell>
        <mxCell id="Sp3fm54vRSG5ZmfMtKE7-25" value="&lt;b&gt;FIM&lt;/b&gt;" style="rounded=1;whiteSpace=wrap;html=1;" vertex="1" parent="1">
          <mxGeometry x="354" y="740" width="120" height="60" as="geometry" />
        </mxCell>
        <mxCell id="Sp3fm54vRSG5ZmfMtKE7-33" style="edgeStyle=orthogonalEdgeStyle;rounded=0;orthogonalLoop=1;jettySize=auto;html=1;entryX=0.5;entryY=0;entryDx=0;entryDy=0;" edge="1" parent="1" source="Sp3fm54vRSG5ZmfMtKE7-30" target="Sp3fm54vRSG5ZmfMtKE7-32">
          <mxGeometry relative="1" as="geometry" />
        </mxCell>
        <mxCell id="Sp3fm54vRSG5ZmfMtKE7-30" value="verificador==1" style="ellipse;whiteSpace=wrap;html=1;" vertex="1" parent="1">
          <mxGeometry x="354" y="630" width="120" height="30" as="geometry" />
        </mxCell>
        <mxCell id="Sp3fm54vRSG5ZmfMtKE7-34" style="edgeStyle=orthogonalEdgeStyle;rounded=0;orthogonalLoop=1;jettySize=auto;html=1;entryX=0.5;entryY=0;entryDx=0;entryDy=0;" edge="1" parent="1" source="Sp3fm54vRSG5ZmfMtKE7-32" target="Sp3fm54vRSG5ZmfMtKE7-25">
          <mxGeometry relative="1" as="geometry" />
        </mxCell>
        <mxCell id="Sp3fm54vRSG5ZmfMtKE7-32" value="Número 1 não é considerado primo!" style="rounded=0;whiteSpace=wrap;html=1;" vertex="1" parent="1">
          <mxGeometry x="354" y="680" width="120" height="35" as="geometry" />
        </mxCell>
      </root>
    </mxGraphModel>
  </diagram>
</mxfile>
